<svg xmlns="http://www.w3.org/2000/svg" viewBox="0 0 100 100"><path fill="#ee3e54" d="M13 27A2 2 0 1 0 13 31A2 2 0 1 0 13 27Z"/><path fill="#f1bc19" d="M77 12A1 1 0 1 0 77 14A1 1 0 1 0 77 12Z"/><path fill="#fce0a2" d="M50 13A37 37 0 1 0 50 87A37 37 0 1 0 50 13Z"/><path fill="#f1bc19" d="M83 11A4 4 0 1 0 83 19A4 4 0 1 0 83 11Z"/><path fill="#ee3e54" d="M87 22A2 2 0 1 0 87 26A2 2 0 1 0 87 22Z"/><path fill="#fbcd59" d="M81 74A2 2 0 1 0 81 78 2 2 0 1 0 81 74zM15 59A4 4 0 1 0 15 67 4 4 0 1 0 15 59z"/><path fill="#ee3e54" d="M25 85A2 2 0 1 0 25 89A2 2 0 1 0 25 85Z"/><path fill="#fff" d="M18.5 51A2.5 2.5 0 1 0 18.5 56A2.5 2.5 0 1 0 18.5 51Z"/><path fill="#f1bc19" d="M21 66A1 1 0 1 0 21 68A1 1 0 1 0 21 66Z"/><path fill="#fff" d="M80 33A1 1 0 1 0 80 35A1 1 0 1 0 80 33Z"/><g><path fill="#472b29" d="M24.5,69h-5c-0.276,0-0.5-0.224-0.5-0.5s0.224-0.5,0.5-0.5h5c0.276,0,0.5,0.224,0.5,0.5 S24.776,69,24.5,69z"/></g><g><path fill="#472b29" d="M77.5,69h-49c-0.276,0-0.5-0.224-0.5-0.5s0.224-0.5,0.5-0.5h49c0.276,0,0.5,0.224,0.5,0.5 S77.776,69,77.5,69z"/></g><g><path fill="#f15b6c" d="M29.7 68.3L29.7 42.323 49 25.919 68.3 42.323 68.3 68.3z"/><path fill="#472b29" d="M49,26.837l18.6,15.81V67.6H30.4V42.647L49,26.837 M49,25L29,42v27h40V42L49,25L49,25z"/></g><g><path fill="#fefdef" d="M49 26.489L71.652 45.5 77 45.5 49 22 21 45.5 26.348 45.5z"/><path fill="#472b29" d="M77,46.2h-5.348c-0.165,0-0.324-0.059-0.45-0.164L49,27.402L26.798,46.036 c-0.126,0.105-0.286,0.164-0.45,0.164H21c-0.294,0-0.557-0.185-0.658-0.461s-0.018-0.586,0.208-0.775l28-23.5 c0.261-0.219,0.64-0.219,0.9,0l28,23.5c0.225,0.189,0.308,0.499,0.208,0.775S77.294,46.2,77,46.2z M71.907,44.8h3.17L49,22.914 L22.923,44.8h3.17L48.55,25.952c0.261-0.219,0.64-0.219,0.9,0L71.907,44.8z"/></g><g><path fill="#472b29" d="M32.224,45.581c-0.143,0-0.285-0.061-0.383-0.179c-0.178-0.211-0.15-0.526,0.062-0.704l3.77-3.164 c0.213-0.179,0.527-0.149,0.704,0.062c0.178,0.211,0.15,0.526-0.062,0.704l-3.77,3.164C32.451,45.543,32.337,45.581,32.224,45.581z"/></g><g><path fill="#472b29" d="M37.728,40.961c-0.143,0-0.285-0.061-0.383-0.179c-0.178-0.211-0.15-0.526,0.062-0.704l1.802-1.513 c0.211-0.178,0.528-0.148,0.704,0.062c0.178,0.211,0.15,0.526-0.062,0.704l-1.802,1.513C37.956,40.923,37.841,40.961,37.728,40.961 z"/></g><g><path fill="#472b29" d="M59.359,40.194c-0.113,0-0.227-0.038-0.321-0.117L49,31.652l-7.586,6.367 c-0.211,0.18-0.527,0.152-0.704-0.062c-0.178-0.211-0.15-0.526,0.062-0.704l7.908-6.637c0.186-0.156,0.457-0.156,0.643,0 l10.359,8.694c0.211,0.178,0.239,0.493,0.062,0.704C59.644,40.134,59.502,40.194,59.359,40.194z"/></g><g><path fill="#472b29" d="M65.586,45.421c-0.113,0-0.227-0.038-0.321-0.117l-4.057-3.405 c-0.212-0.178-0.239-0.493-0.062-0.704s0.492-0.239,0.704-0.062l4.057,3.405c0.212,0.178,0.239,0.493,0.062,0.704 C65.871,45.36,65.729,45.421,65.586,45.421z"/></g><g><path fill="#fefdef" d="M49 41.5A10.5 10.5 0 1 0 49 62.5A10.5 10.5 0 1 0 49 41.5Z"/><path fill="#472b29" d="M49,63c-6.065,0-11-4.935-11-11s4.935-11,11-11c1.667,0,3.27,0.364,4.763,1.082 c0.249,0.119,0.354,0.418,0.234,0.667c-0.119,0.248-0.417,0.357-0.667,0.233C51.973,42.331,50.516,42,49,42 c-5.514,0-10,4.486-10,10s4.486,10,10,10s10-4.486,10-10c0-1.629-0.4-3.245-1.157-4.674c-0.129-0.244-0.036-0.547,0.208-0.676 c0.244-0.132,0.547-0.036,0.676,0.207C59.56,48.431,60,50.209,60,52C60,58.065,55.065,63,49,63z"/><path fill="#472b29" d="M57.321,46.095c-0.15,0-0.298-0.067-0.396-0.194c-0.598-0.776-1.304-1.458-2.098-2.028 c-0.225-0.161-0.276-0.474-0.115-0.698c0.161-0.225,0.473-0.277,0.698-0.114c0.874,0.627,1.65,1.377,2.307,2.229 c0.168,0.219,0.128,0.533-0.091,0.701C57.535,46.061,57.428,46.095,57.321,46.095z"/><path fill="#f15b6c" d="M56 50L51 50 51 45 47 45 47 50 42 50 42 54 47 54 47 59 51 59 51 54 56 54z"/><path fill="#472b29" d="M52.469 50.25H51c-.138 0-.25-.112-.25-.25v-4.75h-3.5v.875c0 .138-.112.25-.25.25s-.25-.112-.25-.25V45c0-.138.112-.25.25-.25h4c.138 0 .25.112.25.25v4.75h1.219c.138 0 .25.112.25.25S52.607 50.25 52.469 50.25zM51 59.25h-4c-.138 0-.25-.112-.25-.25v-1.375c0-.138.112-.25.25-.25s.25.112.25.25v1.125h3.5V54c0-.138.112-.25.25-.25h4.75v-3.5h-1.344c-.138 0-.25-.112-.25-.25s.112-.25.25-.25H56c.138 0 .25.112.25.25v4c0 .138-.112.25-.25.25h-4.75V59C51.25 59.138 51.138 59.25 51 59.25zM47 55.813c-.138 0-.25-.112-.25-.25V54.25H42c-.138 0-.25-.112-.25-.25v-4c0-.138.112-.25.25-.25h4.75v-1.875c0-.138.112-.25.25-.25s.25.112.25.25V50c0 .138-.112.25-.25.25h-4.75v3.5H47c.138 0 .25.112.25.25v1.563C47.25 55.7 47.138 55.813 47 55.813z"/></g></svg>